{"scene":0,"scenes":[{"nodes":[0]}],"asset":{"version":"2.0","generator":"https://github.com/mikedh/trimesh"},"accessors":[{"componentType":5125,"type":"SCALAR","bufferView":0,"count":3072,"max":[511],"min":[0]},{"componentType":5126,"type":"VEC3","byteOffset":0,"bufferView":1,"count":512,"max":[2.5,2.5,0.5],"min":[-2.5,-2.5,-0.5]}],"meshes":[{"name":"geometry_0","extras":{"shape":"torus","major_radius":2.0,"minor_radius":0.5,"processed":true},"primitives":[{"attributes":{"POSITION":1},"indices":0,"mode":4}]}],"nodes":[{"name":"world","children":[1]},{"name":"geometry_0","mesh":0}],"buffers":[{"uri":"gltf_buffer_0.bin","byteLength":12288},{"uri":"gltf_buffer_1.bin","byteLength":6144}],"bufferViews":[{"buffer":0,"byteOffset":0,"byteLength":12288},{"buffer":1,"byteOffset":0,"byteLength":6144}]}